<svg width="58.508" height="59.998" viewBox="0 0 15.48 15.874" xmlns="http://www.w3.org/2000/svg"><path d="M.552 14.269c-.31.004-.548.151-.552.34-.004.188.229.337.544.347.358.011.626-.142.619-.355-.007-.198-.265-.339-.611-.332M3.605 15.065c-.12.002-.236.138-.354.215l.317.37.34-.35c-.1-.085-.204-.237-.303-.235" style="fill:#231f20;fill-opacity:1;fill-rule:nonzero;stroke:none;stroke-width:.759994"/><path d="M14.643 12.573c.006-.524-.31-1.043-.758-1.31-.387-.343-1.21-1.5-.726-4.946a4.22 4.22 0 0 0 .114-.715l.002-.013h-.001c.008-.109.013-.218.013-.33 0-2.6-2.1-5.259-4.689-5.259C6.396 0 3.7 2.574 3.478 4.717c0 0-.09 1.455.102 2.303 0 0 1.04 5.18-2.094 5.368-.08.052-.159.105-.238.162-.229.161-.459.342-.633.558-.294.366-.213.676.205.9.16.085.335.145.511.192.757.2 1.52.375 2.272.592.214.063.49.19.575.366.24.505.652.657 1.136.666 1.005.02 2.01.004 3.015.004v.033c.484 0 .969-.023 1.452.004 1.415.082 2.702-.401 3.97-.92.618-.252.736-.57.488-1.104-.008-.016-.006-.036-.012-.054-.094-.272-.03-.48.186-.69a.821.821 0 0 0 .23-.526M.58 13.397l.618.491c-.255-.089-.523-.15-.618-.491m3.813 1.735c-.149-.35-.431-.498-.773-.588-.35-.09-.695-.201-1.042-.303l.029-.065c.487.142.977.273 1.458.433a.517.517 0 0 1 .296.262c.133.36.35.594.742.65-.307-.01-.58-.084-.71-.39M5.568 4.435c-.012.206-.127 2.293-.14 2.55-.007.13-.016.262-.021.397l-.018.41a23.55 23.55 0 0 1-.033.518 3.525 3.525 0 0 1-.473-1.018l-.002.006a9.588 9.588 0 0 1-.049-.227c-.285-1.381-.187-2.419.018-3.155l-.006.002c.198-1.07.94-1.837 1.403-2.224l.033-.03c.017-.015.031-.029.05-.044l.059-.044.12-.087.061-.045c.02-.013.042-.024.063-.037l.126-.072a2.79 2.79 0 0 1 1.132-.331c.4-.03.813.025 1.199.17.385.14.742.365 1.042.65l.116.112.098.114.05.058.047.065c.03.043.063.087.092.132.11.18.203.371.268.574.019.05.027.103.042.154l.019.078c.006.026.009.052.013.08l.024.157.009.161c.006.214-.007.432-.062.643-.007.026-.01.053-.018.08l-.025.077c-.017.052-.03.105-.051.156l-.064.15c-.02.052-.05.097-.075.147-.049.099-.116.186-.177.28l-.105.127-.026.032-.014.015-.007.01c-.004.003.002 0-.012.012l-.055.055c-.037.036-.07.073-.12.11l-.069.055a.571.571 0 0 1-.07.052c-.048.03-.094.063-.144.091l-.153.08a1.948 1.948 0 0 1-1.35.092 1.899 1.899 0 0 1-.62-.314c-.048-.033-.09-.074-.134-.111l-.033-.03-.016-.014-.022-.024-.052-.056c-.033-.03-.075-.089-.113-.138l-.03-.04-.024-.038-.047-.077a1.65 1.65 0 0 1-.213-.68 1.7 1.7 0 0 1 .45-1.305l.014-.015.008-.009.017-.017.027-.025.053-.05.08-.062.04-.03a1.376 1.376 0 0 1 1.073-.213c.23.05.45.154.624.305l.063.058.016.015.007.006a.284.284 0 0 1 .018.017l.023.026.023.025c.007.01.014.015.025.032l.06.081c.067.104.117.21.15.325.034.113.049.23.049.346-.003.116-.022.23-.053.34a1.279 1.279 0 0 1-.146.305c-.032.044-.064.092-.102.13l-.028.03-.015.016-.007.006-.017.017-.048.042-.034.026-.04.03c-.027.02-.05.031-.076.046a.609.609 0 0 1-.076.038c-.026.011-.052.023-.079.032a.963.963 0 0 1-.923-.155l-.059-.05-.027-.028-.007-.006-.015-.015-.01-.011-.017-.023-.01-.01-.014-.02c-.017-.024-.039-.052-.05-.075a.81.81 0 0 1 .032-.874l.045-.058.048-.052.007-.006.013-.013.01-.01.02-.016a.666.666 0 0 1 .345-.143.646.646 0 0 1 .508.168l.024.023.006.004.011.012.008.01.015.017.023.032c.017.022.026.041.037.062.01.021.02.041.027.062a.533.533 0 0 1-.068.489c-.012.015-.024.032-.038.046l-.02.022-.01.011c-.013.013-.006.004-.01.009l-.004.002-.017.013-.03.021a.433.433 0 0 1-.568-.083c-.003-.003-.01-.012-.016-.022-.006-.01-.013-.017-.017-.026a.293.293 0 0 1-.035-.091.339.339 0 0 0 .056.135c.007.01.012.013.016.02l.003.004.01.01.02.022.01.01c.004.005-.013-.014-.004-.003l.003.002.016.013a.463.463 0 0 0 .476.073c.012-.004.024-.011.035-.018a.11.11 0 0 0 .034-.02c.01-.008.024-.014.03-.02l.01-.01c.004-.002.006-.002.015-.012l.046-.045c-.019.018-.003.002-.006.004l.004-.004.007-.009.014-.017a.249.249 0 0 0 .027-.035l.025-.037a.723.723 0 0 0 .07-.164.782.782 0 0 0 .022-.178.753.753 0 0 0-.032-.18.68.68 0 0 0-.08-.161l-.02-.028c0-.004-.01-.013-.017-.022l-.023-.025-.016-.017c0 .002 0 .002-.002-.002l-.006-.004-.009-.01-.038-.033a.848.848 0 0 0-.781-.16c-.033.013-.068.022-.1.038-.016.01-.032.013-.048.022l-.047.027-.022.013L8 3.226a.32.32 0 0 1-.037.024l-.055.048-.025.023-.003.002-.01.011a1.153 1.153 0 0 0-.2 1.34l.03.055.015.027.016.023c.023.03.036.058.075.1l.05.058.007.006.009.01.024.023c.033.03.062.063.097.09.134.115.292.201.46.263a1.618 1.618 0 0 0 1.075.01l.13-.053c.043-.02.084-.044.126-.065a.504.504 0 0 0 .058-.035L9.9 5.15c.037-.022.078-.058.118-.09l.06-.05.046-.047.103-.104c.059-.078.127-.15.176-.234a1.993 1.993 0 0 0 .33-1.121l-.006-.149c-.005-.049-.013-.098-.019-.147-.004-.024-.006-.05-.011-.073l-.017-.072c-.013-.048-.02-.098-.036-.144l-.048-.14a.443.443 0 0 0-.028-.067l-.032-.067c-.038-.09-.094-.172-.142-.256l-.086-.115-.043-.057-.052-.056-.103-.11-.107-.091A2.508 2.508 0 0 0 7.937 1.4a2.745 2.745 0 0 0-1.044.409c-.017.01-.035.021-.05.032l-.046.035-.092.068-.045.034-.048.043-.096.086-.048.044-.012.01-.002.003-.02.021-.083.086-.077.088c-.026.03-.051.059-.075.09-.023.03-.048.06-.07.091-.045.063-.09.125-.13.189a2.967 2.967 0 0 0-.214.389 2.548 2.548 0 0 0-.12.29s-.066.284-.074.694L5.59 4.1l-.022.32m.155 4.345a4.629 4.629 0 0 0-.016-.58c-.01-.135-.019-.272-.025-.41l-.019-.409c-.005-.134-.013-.267-.02-.396-.01-.177.028-1.223.048-1.923.146.583.482 1.19 1.202 1.57l-.014.152-.03.332-.03.37c-.01.13-.022.262-.03.397l-.027.41a9.046 9.046 0 0 1-.036.408 3.229 3.229 0 0 0 .005.883 4.028 4.028 0 0 1-1.008-.804m2.004 6.868h-1.41v-.086c.23 0 .461-.009.691.002.24.013.48.047.72.07v.013m-.542-5.846.001-.002a4.673 4.673 0 0 0 .063-.703 4.21 4.21 0 0 0-.027-.396 8.979 8.979 0 0 1-.037-.41l-.026-.409c-.009-.134-.02-.267-.03-.396l-.03-.37-.03-.333-.006-.07c.233.103.504.183.815.236l-.002.036-.017.805-.012.41a9.815 9.815 0 0 0-.002.768l.005.17.009.16c.004.103.011.198.017.281.006.084.012.157.018.217.012.12.022.188.022.188h.016s.01-.068.021-.188c.006-.06.012-.133.018-.217.006-.083.013-.178.018-.28l.008-.16.006-.172A9.815 9.815 0 0 0 8 8.184l-.011-.409-.018-.805v-.022c.067.01.137.017.209.025a153.784 153.784 0 0 0-.022.99l-.012.409a9.773 9.773 0 0 0-.002.767l.006.171.007.16c.005.104.012.198.018.282a6.986 6.986 0 0 0 .023.264 3.41 3.41 0 0 1-1.013-.23m1.243.24c-.06 0-.122-.003-.182-.005l.006-.051c.006-.06.012-.133.018-.217.006-.084.013-.178.018-.281l.008-.16.005-.172a9.774 9.774 0 0 0-.002-.767l-.012-.41-.017-.805-.004-.175c.052.004.105.009.159.01 0 0 .132.012.343-.001l-.003.033a3.459 3.459 0 0 1-.028.234 1.352 1.352 0 0 0-.007.438 1.978 1.978 0 0 0 .079.35 1.223 1.223 0 0 0 .1.232h.04l.016-.029a.847.847 0 0 0 .037-.08c.013-.034.031-.075.046-.123a2 2 0 0 0 .093-.562c0-.074-.01-.15-.021-.226-.011-.078-.023-.156-.029-.234l-.006-.065c.16-.022.338-.057.525-.112l-.032.31c-.012.13-.025.262-.036.398-.012.134-.022.272-.033.409-.01.137-.027.274-.044.41a3.443 3.443 0 0 0-.035.396c-.001.128.009.252.023.37a3.735 3.735 0 0 0 .145.674c-.367.135-.76.213-1.17.213m1.705-.887c.004.119.011.23.017.332l.006.081c-.054.032-.108.06-.164.09a3.715 3.715 0 0 0 .095-.503c.015-.118.024-.242.023-.37a3.453 3.453 0 0 0-.034-.397 8.047 8.047 0 0 1-.045-.41c-.01-.136-.02-.274-.032-.408-.011-.136-.024-.269-.037-.397-.012-.128-.025-.253-.038-.37l-.004-.047c.09-.035.18-.076.27-.122l-.018.539-.022.805c-.005.275-.023.55-.024.807 0 .128.002.252.007.37m1.062-2.54-.024.37c-.007.129-.016.262-.022.396l-.02.41c-.008.137-.018.274-.029.409a4.157 4.157 0 0 0-.015.632 4.044 4.044 0 0 1-.77.64c.005-.098.012-.204.016-.317.005-.118.007-.242.007-.37-.001-.258-.018-.532-.024-.807l-.022-.805c-.006-.21-.013-.406-.02-.583.351-.193.69-.475.955-.883-.002.18 0 .451-.01.575a88.99 88.99 0 0 1-.022.332m.877.038c-.016.56-.228 1.147-.58 1.672a78.333 78.333 0 0 1-.038-.533l-.02-.41a66.393 66.393 0 0 0-.068-1.099c-.01-.143-.026-.544-.037-.746a2.84 2.84 0 0 0 .123-.25c.082-.138.143-.294.16-.47 0 0 .559.652.46 1.836m1.805 7.967c-.384.201-.799.344-1.21.491.477-.426 1.256-.457 1.501-1.148.096.265.039.483-.291.657" style="fill:#231f20;fill-opacity:1;fill-rule:nonzero;stroke:none;stroke-width:.759994"/><path d="M14.96 13.287c-.264.009-.47.17-.466.37.003.21.215.362.501.359.26-.002.48-.165.485-.355.005-.21-.235-.383-.52-.374M8.62 3.951l.006.004.001.002c-.003-.002 0 0 0 0l.002.002.009.004c.026.01.06.009.078-.018.02-.024.024-.068.003-.095-.003-.004-.005-.006-.006-.01h-.001l-.032.031c.001.002-.014-.015-.043-.009-.014.004-.027.02-.031.04-.002.012 0 .023.005.034.003.004.008.01.01.01" style="fill:#231f20;fill-opacity:1;fill-rule:nonzero;stroke:none;stroke-width:.759994"/></svg>