<svg width="71.177" height="60" viewBox="0 0 18.832 15.875" xmlns="http://www.w3.org/2000/svg"><path d="M5.674 9.6h1.95v2.574h-1.95Zm5.337 0h1.933v2.574h-1.933ZM4.94 8.84v3.519l-.13.983.13.899v1.634h3.393v-2.709h1.962v2.709h3.393v-1.65l.159-.883-.16-.983V8.84z" style="fill:#231f20;fill-opacity:1;fill-rule:nonzero;stroke:none;stroke-width:.641881"/><path d="m13.996 8.866-.378-4.015H5.215l-.636 4.015ZM15.437 1.275h.995V0h-.995z" style="fill:#231f20;fill-opacity:1;fill-rule:nonzero;stroke:none;stroke-width:.641881"/><path d="M10.65 4.214h8.182L17.731.769 11.525.742z" style="fill:#231f20;fill-opacity:1;fill-rule:nonzero;stroke:none;stroke-width:.641881"/><path d="m15.401 5.298 1.238-.007v2.484l-1.257.007zM11.732 3.86l.013.85 1.999-.002.395 4.28-.322.002v3.369h1.263v2.22l2.449.025v-1.15l.25-.83-.25-1.055V6.967l.25-.87-.25-.807V3.86ZM2.401 1.275h.995V0h-.995ZM8.782 5.488h.995V4.213h-.995Z" style="fill:#231f20;fill-opacity:1;fill-rule:nonzero;stroke:none;stroke-width:.641881"/><path d="M1.103.77 0 4.213h8.181L7.307.74Z" style="fill:#231f20;fill-opacity:1;fill-rule:nonzero;stroke:none;stroke-width:.641881"/><path d="m2.038 5.29 1.179.015v2.484l-1.184.014Zm-.734-1.43v1.4l-.274.838.274.869v4.624l-.274.92.274.92v1.173h2.248v-2.221H4.76l.013-3.374-.365-.005.662-4.293h2.044l-.013-.85z" style="fill:#231f20;fill-opacity:1;fill-rule:nonzero;stroke:none;stroke-width:.641881"/></svg>