<svg width="63.328" height="59.998" viewBox="0 0 16.756 15.875" xmlns="http://www.w3.org/2000/svg"><path d="M.422 9.885a.307.307 0 0 1-.057-.04s.045.063.057.04M.278 10.132a.62.62 0 0 1-.085-.08.498.498 0 0 0 .189.178.35.35 0 0 1-.104-.098M14.223 10.204a.54.54 0 0 0 .04.203c.02-.082-.004-.132-.04-.203" style="fill:#231f20;fill-opacity:1;fill-rule:nonzero;stroke:none;stroke-width:.806438"/><path d="M15.157 10.3c.032-.1.052-.213.056-.325.058.042.007.183-.056.325m1.526-1.643.005-.001c-.33-2.411-1.423-4.261-2.872-6.154-3.747-3.337-7.127-3.336-10.873.003C1.295 4.72.525 6.561.107 9.29a.257.257 0 0 1-.016-.034.93.93 0 0 0 .007.188c.034.188.144-.055.157.396.052-.146.082-.22.144-.372l.052.003c-.01.176-.005.365-.028.413.044.02.006.064.08.255-.201-.864.895.267 1.599-.522.037.058-.035.416-.035.416s.097.285.174.356c.013-.254.11-.448.215-.792.046.265-.042.549-.036.684.318.16.689-.536.95-.135v3.42h.007v1.153c.083.08.202.14.207-.331.013.163.061.048.073-.026.098.038.107.096.204.035l-.027-.105c.038-.777.08-.173.159-.266l-.003.079c.18.56.078-.268.254.37l-.009-.482c.004-.214.012-.313.025-.34h.018c.054.096.145.836.216.555l-.037-.276c.056-.356.157 1.413.214 1.543.011.09-.02.145-.036.212.147.612.018-.633.128-.78.02.341-.026.868.048.93.037.276.215-1.107.316-.453-.024-.262-.046-.525.006-.723.078-.093.211.995.282.165.01.072.014.14.014.206.06-.214.194-.355.231-.805.055 1.669.371-.811.37.728l.184-.082-.004.157c.117.101.16-.268.2-.637.026.104.007.249.004.33.173.31.19.244.334-.522l.014.498c.038-.273.225.665.389.285-.297-.862-.478-1.813-.478-2.278a1.75 1.75 0 0 1 3.5 0c0 .406-.14 1.183-.37 1.948.121.009.24-.083.267.079.082-.424.163-.417.262-.365a.973.973 0 0 1-.012-.117l.063.006c.034.513.158.214.216.903-.032-.507.215-.17.165-.865l.02.003c.013.172-.014.446.026.68.17-.522.375.34.587.164.003-.177-.032-.449.013-.711l.112.885c.04-.088.038-1.023.113-.408-.01-.15-.026-.374.002-.43.412.863.843-.707 1.262.915-.056-.343-.019-.379.023-.39-.02-.063-.008-.286-.004-.495l.05.004.125.479c.027-.548.138-.225.187-.448v-.002c.01-.047.017-.12.02-.231l-.02.04.055-4.658c.19.177.49.826.441-.27.105.454.34.578.447.78a1.202 1.202 0 0 1 .008-.206c.178.812.3-.28.426-.2a.737.737 0 0 1 .014.623c.295-.496.014.436.243.245a.368.368 0 0 0 .142-.144c-.055.134-.054.19.177 0 .016-.041.003-.07.052-.133.119-.101.135-1.67.248-1.35l-.018.255c.121.249.158-.43.212-.517.01-.002.013-.002.022-.002.019.022.044.11.07.3.015.173.022.26.032.43.164-.59.116.146.265-.355-.005-.026-.007-.041-.01-.067.096.072.096-.44.195.209l-.02.091c.107.038.11-.01.204-.057.016.06.069.147.074.012.029.382.13.31.197.23a7.637 7.637 0 0 0-.073-.91M.045 9.607c-.013.114-.035.065-.045.038.009.189-.013.26.111.392-.12-.14-.077-.225-.066-.43M13.333 14.76l.014.653.038-.592c-.015.029-.042.086-.052-.061" style="fill:#231f20;fill-opacity:1;fill-rule:nonzero;stroke:none;stroke-width:.806438"/></svg>