<svg width="59.856" height="60.001" viewBox="0 0 15.837 15.875" xmlns="http://www.w3.org/2000/svg"><path d="M15.41 5.616a8.136 8.136 0 0 0-1.444-2.576 36.308 36.308 0 0 0-.245-.264l.004-.008C10.378-.896 5.775-.079 3.735.534a5.94 5.94 0 0 0-1.044.373C.69 1.839-.441 3.676.16 5.01c.602 1.333 2.711 1.66 4.71.728.265-.124.514-.264.747-.415 4.33-2.168 6.153 1.537 6.153 1.537l.004-.016c.028.056.057.11.083.165.228.503.391 1.052.447 1.63.004.144.028.29.028.436l-.012.442-.06.444c-.028.147-.07.291-.101.44l-.012.057-.004.028a.53.53 0 0 0 .024-.06l-.008.016-.051.141-.105.284-.024.065-.02.036-.037.073c-.024.05-.044.1-.067.152-.077.117-.141.246-.225.359l-.129.168c-.024.028-.041.059-.065.086l-.073.077a3.844 3.844 0 0 1-1.402.981 3.872 3.872 0 0 1-2.57.093l-.029-.008-.012-.004c-.048-.02.029.016.044.02l-.067-.028-.135-.054-.135-.053-.061-.024-.037-.02a1.998 1.998 0 0 0-.144-.07c-.05-.02-.11-.07-.168-.102-.121-.064-.22-.16-.332-.238l-.15-.142-.076-.07-.067-.078c-.191-.2-.335-.44-.467-.684l-.088-.19c-.033-.062-.047-.13-.072-.195-.054-.128-.077-.267-.114-.4-.045-.274-.083-.552-.058-.827-.002-.14.028-.274.045-.413.004-.068.033-.134.047-.2l.025-.102.012-.05.004-.024c-.037.087-.004.016-.012.028l.004-.016.092-.248c.008-.017.016-.047.025-.056l.016-.033.032-.07.028-.07.05-.08c.033-.053.06-.114.1-.162.286-.417.7-.741 1.16-.918.461-.184.961-.214 1.428-.128l.172.044.086.02.012.003c.033.012-.032-.016-.02-.008l.024.008.052.02.101.04c.032.013.077.029.091.037.04.02.082.041.125.06.187.102.364.235.513.387.15.154.27.331.369.515.097.186.157.384.202.58.033.196.053.394.037.585 0 .095-.025.187-.033.28-.02.087-.043.17-.062.253-.017.05-.037.099-.053.147-.02.05-.033.071-.049.11-.024.066-.076.139-.114.207a1.808 1.808 0 0 1-.99.745 1.812 1.812 0 0 1-.597.082l-.117-.004a5.358 5.358 0 0 1-.103-.012 1.121 1.121 0 0 1-.16-.029l-.128-.032s-.81-.243-.88-.97c0 0-.27.882.744 1.328l.149.06c.048.02.11.041.185.062.037.012.079.024.122.036l.144.024c.2.033.46.053.762 0 .3-.048.642-.167.975-.396.17-.11.326-.26.48-.429.07-.091.143-.174.21-.29.033-.05.074-.116.097-.162.025-.046.047-.093.072-.14l.008-.016.004-.008c.004-.012-.004.016.012-.028l.016-.043.032-.087c.025-.059.046-.117.066-.179.032-.124.075-.248.094-.38.053-.265.063-.546.047-.837a3.519 3.519 0 0 0-.191-.882 3.524 3.524 0 0 0-.46-.85 3.482 3.482 0 0 0-.742-.719 5.298 5.298 0 0 0-.248-.156.95.95 0 0 0-.106-.057l-.097-.05-.049-.025-.024-.012L9 6.055l-.124-.047a6.45 6.45 0 0 0-.25-.094 4.04 4.04 0 0 0-2.235-.056 4.182 4.182 0 0 0-2.09 1.296c-.075.08-.135.171-.205.257l-.1.133L3.9 7.7l-.094.16-.047.081c-.017.028-.02.041-.033.064l-.118.237-.008.017c-.013.024.012-.037-.025.061l-.016.04-.028.076-.057.154c-.033.105-.08.206-.105.314-.054.214-.117.43-.142.654-.08.445-.079.908-.042 1.371.033.23.056.464.119.691.028.113.05.232.09.343a5.391 5.391 0 0 0 .8 1.606l.104.15.119.14c.08.093.16.188.243.277.178.17.35.352.552.499.101.076.189.152.305.228.117.074.236.149.357.22l.09.052c.032.02.046.025.07.037l.13.064.13.066.065.032c-.008-.003.125.053.079.032l.02.008.041.017.34.125c.113.041.225.084.346.111.235.057.47.133.712.16a6.566 6.566 0 0 0 2.944-.188 6.756 6.756 0 0 0 2.62-1.516l.142-.13c.046-.044.089-.094.133-.141l.261-.287c.09-.093.162-.203.241-.304l.234-.314c.077-.12.153-.245.227-.37l.11-.19.055-.095.036-.073.136-.268.068-.134.008-.016c-.024.064.043-.105.04-.096l.017-.044.032-.087a8.4 8.4 0 0 0 .632-2.934 8.427 8.427 0 0 0-.435-2.973M3.592 3.29c-.355.244-.742.349-1.069.323l1.336-2.17a.71.71 0 0 1 .364.266c.29.435.008 1.143-.63 1.581" style="fill:#231f20;fill-opacity:1;fill-rule:nonzero;stroke:none;stroke-width:1.42724"/></svg>