<svg width="34.975" height="60" viewBox="0 0 9.254 15.875" xmlns="http://www.w3.org/2000/svg"><path d="M2.406 4.461c.018-.002-.005-.007-.015.003-.538.544-1.08 1.083-1.605 1.638-.066.07-.082.239-.052.34.14.459.3.91.458 1.364.045.128.077.278.165.37.324.338.25.746.229 1.148-.004.055-.045.109-.07.163-.054-.035-.114-.063-.161-.106-.04-.036-.054-.097-.093-.132-.29-.266-.335-.59-.247-.958a.485.485 0 0 0-.013-.268C.797 7.473.576 6.929.373 6.379c-.029-.078-.023-.21.025-.27.176-.216.384-.405.566-.617a59.22 59.22 0 0 0 1.28-1.519c.06-.074.062-.235.03-.336-.118-.376-.261-.743-.349-1.153l1.365.892c.057-.228.087-.413-.088-.57-.032-.03-.072-.065-.083-.105-.094-.342-.33-.563-.604-.757-.105-.074-.145-.171-.007-.257.513-.322.569-.907.782-1.4C3.33.2 3.34.1 3.364 0l1.102 1.918c-.066.252-.522.154-.579.537-.04.27-.217.519-.333.777l.111.094 1.28-.886c-.028.155-.032.23-.056.299-.112.316-.239.626-.339.945a.462.462 0 0 0 .023.328c.294.526.606 1.044.934 1.6.088-.107.194-.188.236-.295.213-.536.4-1.083.613-1.62.199-.499.104-1.015.115-1.526.008-.43.065-.86-.07-1.292-.034-.11.143-.286.236-.453.422.966 1.175 1.508 2.122 1.782-.049.307-.074.595-.143.872-.086.351.08.57.328.763l.31.24-.032.078c-.344-.099-.687-.197-1.03-.297-.213-.061-.328-.15-.189-.402.092-.167.03-.307-.157-.421-.379-.233-.735-.503-1.12-.771v.903l.442-.337c-.082.403-.02.772-.332 1.043a.466.466 0 0 0-.137.298 554.059 554.059 0 0 0-.211 4.018c-.069 1.386-.128 2.773-.205 4.16-.046.836-.117 1.672-.179 2.528.309-.036.322.154.292.4-.022.176-.004.358-.004.575H4.76c-.538 0-1.076 0-1.613-.002-.53 0-1.062.039-1.585-.012-.52-.05-1.034.073-1.563.015v-.923c.05-.01.112-.039.165-.028.589.12.905-.341 1.297-.631.067-.05.06-.2.094-.3a1.876 1.876 0 0 0-.117-1.56c-.063-.117-.088-.256-.142-.38-.12-.279-.241-.528.108-.767.126-.086.167-.334.195-.517.01-.073-.121-.168-.185-.25.047-.202.096-.429.154-.652a.406.406 0 0 1 .09-.153c.168-.192.338-.379.302-.667a.2.2 0 0 1 .057-.148c.455-.434.364-1.056.527-1.59.018-.057-.03-.163-.079-.21-.18-.17-.137-.355-.053-.543.09-.197.17-.402.285-.583.135-.21.104-.397.015-.611-.115-.279-.2-.57-.307-.884m1.977.119c-.04.134-.09.285-.13.439-.122.466-.132.906.244 1.284.067.068.08.214.08.324 0 .34-.03.679-.027 1.017.002.253.065.508.05.758-.033.517.086.986.34 1.43.049.085.09.178.118.272.016.056.024.159-.004.177-.162.103-.07.21-.02.318.06.121.118.245.19.36.094.15.1.267-.046.398-.34.304-.532.712-.566 1.153-.045.594-.046 1.199.005 1.792.02.21.205.498.388.578.23.1.536.023.823.023 0-.458-.028-.86.008-1.255.033-.355.179-.7.2-1.054.09-1.466.155-2.934.226-4.4.054-1.107.103-2.213.154-3.32.007-.128.012-.257.018-.385-.179.27-.327.538-.444.819-.112.265-.192.545-.304.87-.468-.574-.885-1.087-1.303-1.598M2.87 10.896v1.119c-.33.167-.55.458-.629.903-.099.56-.28 1.103-.423 1.655-.026.099-.04.202-.06.304.056.016.082.028.107.029.677.027 1.354.055 2.032.075.058.002.159-.041.17-.083.066-.24.158-.486.152-.728-.012-.534-.073-1.066-.124-1.598-.008-.093-.039-.23-.101-.263-.352-.18-.348-.547-.454-.851-.051-.149.017-.378-.07-.466-.097-.097-.311-.075-.474-.103-.017-.003-.035.002-.127.007" style="fill:#231f20;fill-opacity:1;fill-rule:nonzero;stroke:none;stroke-width:.694057"/></svg>