<svg width="60.503" height="59.998" viewBox="0 0 16.008 15.875" xmlns="http://www.w3.org/2000/svg"><path d="M14.834 4.107c-1.396.317-2.721-.653-3.135-.996-.92-.826-2.228-1.244-3.682-1.248H7.99c-1.453.004-2.761.422-3.68 1.248-.414.343-1.739 1.313-3.136.996 0 0 .547.766 1.117.766 0 0-.397.188-.753.04.382.2 1.964 1.174 2.108 3.724 0 0-.149 2.147 1.733 4.62.762.972 1.655 1.624 2.611 1.633h.027c.958-.008 1.85-.66 2.612-1.633 1.882-2.473 1.733-4.62 1.733-4.62.145-2.55 1.727-3.524 2.108-3.723-.356.147-.753-.04-.753-.04.57 0 1.117-.767 1.117-.767M4.11 4.78c-.235-.57.372-1.356 1.356-1.755.984-.4 1.972-.261 2.207.308.235.57-.885 1.511-1.84 2.097-.902.553-1.488-.08-1.723-.65m3.895 9.126c-1.834-.004-3.32-1.816-3.32-4.052 0-1.098.36-2.094.943-2.823 0 0 .446-.456.487 0h.616s.525-.472 1.274-.475c.749.004 1.275.475 1.275.475h.615c.041-.456.487 0 .487 0 .584.73.943 1.725.943 2.823 0 2.236-1.486 4.047-3.32 4.052M11.9 4.78c-.235.57-.821 1.203-1.724.65-.954-.586-2.074-1.526-1.839-2.097.235-.57 1.224-.707 2.207-.308.985.4 1.592 1.185 1.356 1.755" style="fill:#231f20;fill-opacity:1;fill-rule:nonzero;stroke:none;stroke-width:.734025"/><path d="m14.717 14.539.117-.083s.002-.024-.001-.064a1.372 1.372 0 0 0-.087-.403 1.88 1.88 0 0 0-.637-.834 2.565 2.565 0 0 0-.426-.216 6.84 6.84 0 0 1-.455-.21c-.291-.152-.578-.307-.862-.44-.28-.137-.547-.26-.776-.366-.14-.064-.265-.12-.375-.167l-.206.286c.033.038.07.082.108.124l-.108.21c.049.08.1.163.16.253.148.23.32.498.513.777.187.285.404.571.615.863.106.146.203.3.296.455.093.155.187.304.303.425.115.12.245.218.38.298.134.083.27.152.404.207.13.057.262.1.383.132.12.034.235.051.33.066.097.015.178.02.235.021.056.002.09.001.09.001l.116-.116s.002-.034-.001-.09a2.574 2.574 0 0 0-.087-.565 2.725 2.725 0 0 0-.218-.57c.038.002.072.004.1.004l.09.001M5.006 11.77l-.307.138c-.23.106-.498.229-.777.366-.284.134-.57.29-.862.44a7.23 7.23 0 0 1-.455.211 2.562 2.562 0 0 0-.425.216c-.12.082-.219.175-.299.272a1.902 1.902 0 0 0-.338.561c-.034.085-.052.168-.066.236-.014.069-.02.127-.022.167-.002.04 0 .064 0 .064l.116.083h.09c.027 0 .06-.002.099-.005a2.924 2.924 0 0 0-.217.57c-.034.119-.052.235-.066.331a2.04 2.04 0 0 0-.022.233c-.002.057 0 .09 0 .09l.116.117.09-.001c.056-.002.137-.008.233-.022.096-.015.212-.032.331-.066.121-.032.252-.074.384-.132.134-.055.269-.124.402-.207.136-.08.266-.178.382-.298.115-.121.21-.27.303-.425.092-.154.19-.31.295-.455.212-.292.429-.578.615-.863.194-.279.366-.547.514-.776.046-.07.088-.138.127-.202l-.122-.21.122-.138zM2.469 3.382c.279.148.547.28.776.395.46.226.781.366.781.366l.117-.09-.011-.014.011-.013s-.183-.32-.477-.78c-.148-.23-.32-.498-.513-.777-.187-.285-.404-.57-.615-.863a6.203 6.203 0 0 1-.297-.455A2.359 2.359 0 0 0 1.94.726a1.763 1.763 0 0 0-.381-.299A2.765 2.765 0 0 0 1.155.22 2.815 2.815 0 0 0 .772.09C.652.055.536.038.44.023A1.706 1.706 0 0 0 .207.002C.15 0 .117 0 .117 0L0 .117S0 .15.002.207a2.573 2.573 0 0 0 .144.752H.117L0 1.047s-.001.026.002.069a1.579 1.579 0 0 0 .087.434 1.995 1.995 0 0 0 .338.604c.08.105.179.205.3.294.12.088.269.16.424.232.155.072.31.146.455.228.292.163.578.33.863.473M15.891.958h-.029a2.886 2.886 0 0 0 .123-.518c.014-.096.02-.177.021-.233.003-.058.002-.09.002-.09L15.89 0l-.09.001a2.164 2.164 0 0 0-.234.022c-.095.015-.211.032-.33.066a2.7 2.7 0 0 0-.384.132c-.133.055-.27.123-.403.207-.136.08-.266.178-.38.299-.116.12-.21.269-.303.424a6.29 6.29 0 0 1-.296.455c-.211.292-.429.578-.616.863-.193.28-.365.547-.513.776-.294.461-.477.782-.477.782l.012.01-.012.015.117.09s.32-.141.781-.367c.23-.114.497-.246.776-.394.285-.144.571-.311.863-.474.146-.081.3-.156.455-.227.155-.071.304-.145.425-.233.12-.089.219-.189.299-.293a2.001 2.001 0 0 0 .338-.605 1.573 1.573 0 0 0 .087-.433c.003-.044.002-.07.002-.07z" style="fill:#231f20;fill-opacity:1;fill-rule:nonzero;stroke:none;stroke-width:.734025"/></svg>