<svg width="120.015" height="60.001" viewBox="0 0 31.754 15.875" xmlns="http://www.w3.org/2000/svg"><path d="m31.74 6.32-.004-.05-.003-.024.001-.075c.02-.173.027-.329.012-.354l-.008-.084-.003-.042-.003-.021c0 .025.006-.261.001-.161-.013-.106-.03-.214-.046-.318a2.005 2.005 0 0 0-.072-.308c-.028-.1-.06-.199-.092-.294a4.491 4.491 0 0 0-.248-.525c-.097-.152-.192-.316-.299-.44-.421-.536-.884-.881-1.326-1.158-.012-.008-.024-.012-.036-.02a7.204 7.204 0 0 0-1.274-.72c-.845-.402-1.66-.622-2.425-.819C25.147.714 24.412.6 23.722.486 23.031.378 22.375.32 21.764.25c-1.224-.119-2.286-.158-3.16-.2-.872-.038-1.557-.038-2.026-.049L15.865 0h-.001l-.717.002c-.466.013-1.151.013-2.025.05-.872.041-1.934.083-3.158.202-.611.069-1.267.13-1.958.238-.689.113-1.422.233-2.191.424-.765.2-1.577.418-2.421.82a7.488 7.488 0 0 0-1.253.71c-.018.012-.036.02-.054.029-.442.276-.903.62-1.323 1.154-.21.266-.396.586-.545.966a4.937 4.937 0 0 0-.104.37l-.062.27-.037.162c.002-.101-.009.16-.009.15l-.001.042-.003.08L0 5.832c-.003.082 0 .164.008.243l-.002.026-.001.047-.003.096L0 6.436c-.007.26.024.506.057.76.037.246.094.485.158.717.136.446.314.864.511 1.214a8.36 8.36 0 0 0 1.3 1.745c.455.477.925.89 1.405 1.243.479.353.964.684 1.457.97.494.282.993.543 1.497.779.503.248 1.017.434 1.532.633.514.185 1.032.367 1.557.503 2.091.602 4.245.865 6.39.875a24.407 24.407 0 0 0 4.81-.473c.265-.052.528-.116.793-.182.262-.063.525-.133.787-.206.26-.069.524-.15.784-.227.26-.085.518-.18.775-.272.515-.197 1.027-.388 1.532-.63 1.008-.475 2.001-1.029 2.958-1.75.48-.352.953-.765 1.409-1.244a8.416 8.416 0 0 0 1.302-1.75c.197-.352.375-.771.512-1.22.034-.11.061-.236.09-.355l.039-.18.017-.09.018-.117c.047-.297.076-.718.054-.766zm-15.885 3.837c-7.582 0-13.727-2.132-13.727-4.76 0-2.628 6.145-4.76 13.727-4.76 7.58 0 13.726 2.132 13.726 4.76 0 2.628-6.145 4.76-13.726 4.76" style="fill:#231f20;fill-opacity:1;fill-rule:nonzero;stroke:none;stroke-width:1.49341"/><path d="m24.749 3.422.058.1c.035.067.097.163.154.294.114.263.267.65.275 1.156.009.253-.025.536-.127.842-.099.308-.273.641-.566.988-.293.346-.712.706-1.311 1.047-.596.34-1.38.658-2.328.9a14.45 14.45 0 0 1-1.522.306c-.268.042-.542.073-.822.106-.28.025-.563.052-.85.067-.571.038-1.17.045-1.738.034-.25-.004-.572-.017-.86-.025-.143-.008-.288-.017-.434-.021-.145-.008-.29-.022-.437-.03-1.164-.091-2.355-.265-3.443-.547-1.092-.279-2.05-.682-2.736-1.156-.695-.473-1.108-1.01-1.337-1.554a1.567 1.567 0 0 1-.078-.206 1.455 1.455 0 0 1-.058-.206l-.028-.103-.018-.106c-.015-.064-.018-.138-.022-.21-.015-.287.049-.571.18-.853.132-.284.34-.562.625-.828.276-.267.648-.52 1.082-.75.868-.467 2.055-.837 3.405-1.042.338-.05.683-.092 1.034-.122.174-.017.352-.026.528-.038l.268-.013.133-.004.067-.003h.087l.237-.005h.284c.203 0 .373.008.561.013.368.017.734.043 1.094.082 1.44.16 2.75.53 3.705 1.027.96.498 1.566 1.125 1.71 1.767.012.042.013.08.02.12l.01.06v.018l.002.025.001.025.001.05.001.025v.034c-.004.046-.007.094-.014.137a1.367 1.367 0 0 1-.182.498c-.194.324-.524.63-.962.9-.44.27-.992.5-1.61.683-.618.18-1.311.312-2.024.385-.355.038-.716.061-1.076.07l-.27.004h-.148l-.106-.002h-.068l-.079-.003-.158-.004c-.1-.003-.188-.008-.284-.012a10.016 10.016 0 0 1-2.068-.334c-.615-.17-1.135-.39-1.534-.643-.396-.253-.664-.536-.8-.825a1.045 1.045 0 0 1-.106-.431v-.065l.004-.042.008-.05.01-.065c.02-.08.047-.15.084-.223.148-.29.448-.557.856-.773.405-.218.91-.388 1.456-.504a8.818 8.818 0 0 1 1.7-.179h.234l.18.003c.174.004.304.017.45.03.282.025.553.069.802.122.497.11.913.265 1.216.444.307.179.506.38.591.58.043.1.061.201.057.298l-.002.05-.007.03-.014.055c-.018.051-.039.113-.07.159-.116.186-.329.35-.593.478a3.713 3.713 0 0 1-.903.276c-.32.058-.646.083-.944.085h-.185l-.047-.002c-.061-.004-.109-.004-.197-.013a3.137 3.137 0 0 1-.406-.055c-.487-.094-.786-.246-.938-.377-.157-.135-.193-.248-.2-.321-.008-.039.001-.066.001-.084l.005-.03h.257l.01.025c.01.017.015.038.04.067a.716.716 0 0 0 .288.229 2.1 2.1 0 0 0 .764.197c.08.008.178.008.247.008.028.001.097-.002.155-.003h.046-.012l.01-.002.017-.002.073-.004c.194-.017.387-.05.563-.101.353-.102.623-.281.663-.481.006-.026-.001-.038.003-.062l-.006-.056-.003-.03c0-.004-.001.025-.001.008l-.003-.004-.003-.008a.491.491 0 0 0-.097-.163 1.16 1.16 0 0 0-.42-.285 2.558 2.558 0 0 0-.676-.182 3.997 3.997 0 0 0-.578-.034l-.144.004h.01-.014l-.029.002-.056.003c-.6.038-1.168.191-1.509.421-.168.113-.28.243-.32.38a.417.417 0 0 0-.016.1l.003.049.003.042c0-.003 0 .021.002-.004l.001.008.003.017a.69.69 0 0 0 .097.227c.192.297.666.566 1.306.721.32.078.672.128 1.04.147l.135.004h.275-.01.02l.154-.003c.206-.008.41-.026.611-.045.405-.043.79-.12 1.144-.22.355-.102.676-.23.936-.382a1.82 1.82 0 0 0 .598-.508.884.884 0 0 0 .139-.285l.014-.062a.088.088 0 0 0 .005-.017l.002-.025.003-.05.001-.025c.002.003.002-.025.002.003v-.008l-.002-.042c-.003-.026 0-.054-.006-.08-.042-.425-.382-.852-.993-1.206-.61-.356-1.474-.633-2.461-.789a12.751 12.751 0 0 0-.763-.095c-.127-.008-.27-.022-.386-.026-.064-.003-.11-.008-.19-.008l-.238-.004H13.834l-.105-.002c-.07 0-.139-.003-.21 0-.138.002-.278 0-.416.003-.279.008-.555.026-.83.05-.551.047-1.086.132-1.595.244a8.815 8.815 0 0 0-1.4.438c-.834.35-1.461.81-1.751 1.313a1.436 1.436 0 0 0-.224.763c0 .258.076.52.194.772.242.503.721.977 1.437 1.346.709.37 1.624.631 2.59.792.968.163 1.985.233 2.983.265.125.003.251.004.375.008l.373.004c.25 0 .463.003.744 0l.199-.003h.076l.087-.002c.118-.003.233-.004.35-.008.228-.013.455-.021.676-.034a14.702 14.702 0 0 0 2.416-.333c1.432-.33 2.44-.865 3.084-1.411a4.274 4.274 0 0 0 1.195-1.558c.207-.46.297-.84.34-1.095.034-.128.039-.231.052-.298l.018-.103z" style="fill:#231f20;fill-opacity:1;fill-rule:nonzero;stroke:none;stroke-width:1.49341"/></svg>