<svg width="51.001" height="60.001" viewBox="0 0 13.494 15.875" xmlns="http://www.w3.org/2000/svg"><path d="M13.492 10.252a2.394 2.394 0 0 0-.045-.584c-.125-.612-.188-1.239-.026-1.853.135-.512.064-.97-.23-1.4-.264-.383-.302-.816-.307-1.262-.018-1.319-.067-2.637.29-3.933-.049-.03-.09-.059-.135-.078-.835-.356-1.703-.562-2.612-.568a.771.771 0 0 0-.38.124c-.246.15-.476.323-.731.5C9.088.824 8.87.475 8.664.12c-.068-.117-.141-.147-.265-.097-.168.068-.344.116-.51.188-.715.308-1.446.505-2.235.407-.09-.01-.212.048-.282.115-.35.336-.708.668-1.024 1.036-.409.474-.875.808-1.527.815a.048.048 0 0 0-.02.004c-.081.05-.183.087-.24.158-.276.336-.533.689-.81 1.024-.107.132-.135.25-.069.409.071.168.115.35.173.537-.166.022-.299.026-.422.063-.087.026-.19.075-.236.145C.81 5.522.44 6.127.057 6.726c-.065.105-.06.173.021.265.194.215.373.444.567.66.087.096.09.172.027.285-.206.365-.395.741-.6 1.108a.451.451 0 0 0-.01.471c.277.517.521 1.053.834 1.548.897 1.424 1.947 2.732 3.032 4.015.934 1.077 2.353.75 2.353.75 6.427-1.282 7.16-5.237 7.21-5.577m-1.263-.73a4.75 4.75 0 0 1-1.714 2.52c-.133.103-.223.114-.341-.022-.52-.601-1.053-1.193-1.57-1.797-.104-.122-.159-.285-.232-.421.06-.167.089-.312.158-.436.269-.47.546-.937.833-1.396.036-.056.16-.099.23-.085.691.152 1.382.313 2.07.48.062.014.128.08.166.141.108.17.184.363.308.52a.5.5 0 0 1 .092.497m-.808-2.669-1.572-.706c.027-.228.047-.443.08-.656a.25.25 0 0 1 .075-.148 102 102 0 0 1 1.24-.983c.028-.022.065-.026.137-.057-.187.855-.1 1.678.04 2.55m-1.43.11c.423.117.842.249 1.269.348.216.05.329.15.346.366.005.07.026.138.05.259L9.746 6.98l.023-.072c.073.018.148.033.221.054m.224-5.721c.085-.051.227-.039.334-.015.374.08.752.156 1.114.276.248.08.261.168.135.393-.608 1.086-1.519 1.807-2.683 2.22a.314.314 0 0 1-.19.018c-.46-.142-.903-.317-1.268-.643-.042-.039-.094-.082-.11-.132a.273.273 0 0 1 .011-.19c.013-.025.11-.021.162-.003.344.109.688.22 1.028.34.368.13 1.03-.276 1.187-.538.086-.144.057-.274-.06-.369-.195-.16-.403-.304-.61-.45-.063-.045-.135-.076-.234-.13.409-.27.79-.534 1.184-.775m-1.539 1.04a.17.17 0 0 1 .058-.029c.19-.051.901.336.95.527.012.045-.013.126-.049.15-.198.134-.405.255-.626.391-.335-.146-.637-.275-.934-.415-.023-.01-.029-.141 0-.164.194-.16.4-.307.601-.46m-1.279-.991c.005-.054.066-.128.119-.152.217-.095.442-.173.686-.267.073.212.149.412.21.618.011.04-.018.115-.053.141-.32.233-.647.458-1.023.72.022-.397.034-.729.061-1.06m-.53 1.512c.18.479.363.957.542 1.436.167.447.316.901.501 1.34.129.304.154.593.01.943l-.412-.766c-.274-.52-.551-1.035-.816-1.558a.535.535 0 0 1-.044-.305c.05-.363.117-.725.22-1.09M6.56 5.071c.31.842.617 1.685.925 2.529.156.424.153.575-.036 1.066l-.788-1.421c-.036-.064-.06-.138-.106-.19-.683-.759-.342-1.597-.17-2.431.058.148.12.297.175.447M2.59 4.007c.132-.338.3-.622.638-.833.846-.528 1.656-1.113 2.478-1.676.1-.068.193-.149.33-.256.168.486.18.928.024 1.373-.018.054-.08.108-.135.132-1.063.47-2.127.937-3.191 1.404-.038.018-.083.018-.146.029 0-.067-.015-.126.002-.172M1.96 5.436c1.198-.45 2.393-.912 3.59-1.37.027-.01.056-.01.131-.025.007.122.027.221.013.316a5.933 5.933 0 0 1-.127.638c-.096.35-.301.61-.666.708-.838.222-1.675.447-2.516.658-.294.075-.597.113-.897.163-.09.015-.182.015-.333.026.219-.45.295-.923.805-1.114M.857 9.57c.035-.12.045-.197.078-.263.184-.369.37-.74.566-1.1a.497.497 0 0 1 .213-.205c1.232-.546 2.465-1.084 3.698-1.624.024-.011.055-.007.112-.015-.327 1.387.199 2.617.6 3.92-.17.133-.396.31-.628.478-.037.026-.116.033-.156.011-.165-.087-.323-.189-.496-.292.16-.174.315-.327.45-.496.043-.055.077-.17.05-.222-.284-.528-.581-1.05-.875-1.572-.084-.149-.192-.153-.344-.082-.971.451-1.946.894-2.921 1.338-.095.044-.198.07-.347.123m1.248.65c.287-.044.492-.323.802-.165l-.539.528-.263-.364m3.124 3.665a36.57 36.57 0 0 1-1.557-1.6c-.358-.396-.666-.837-1.017-1.283.237-.198.454-.387.681-.56.032-.025.134.015.185.048.439.297.87.605 1.31.895a.482.482 0 0 0 .315.068c.676-.113 1.35-.241 2.026-.369.397-.076.76-.004 1.102.207.526.33.909.796 1.298 1.306-.36.181-.687.366-1.03.514-.764.33-1.534.643-2.304.958-.371.151-.724.095-1.009-.184" style="fill:#231f20;fill-opacity:1;fill-rule:nonzero;stroke:none;stroke-width:1.28529"/></svg>