<svg width="68.796" height="60" viewBox="0 0 18.202 15.875" xmlns="http://www.w3.org/2000/svg"><path d="M.9 8.506v3.684l-.14 1.031.14.942v1.712h3.66v-2.839h2.113v2.839h3.66v-1.728l.171-.926-.171-1.03V8.505Z" style="fill:#231f20;fill-opacity:1;fill-rule:nonzero;stroke:none;stroke-width:.924642"/><path d="m11.145 9.874-.886-5.548H1.196L0 9.874Z" style="fill:#231f20;fill-opacity:1;fill-rule:nonzero;stroke:none;stroke-width:.924642"/><path d="M3.294 4.805H2.222V3.47h1.072zM17.464 10.263V5.91l-6.073.019.166.906.383 2.042h-.714v5.72l.58.018v-3.353h2.089v3.353h3.57v-2.042l.113-1.092z" style="fill:#231f20;fill-opacity:1;fill-rule:nonzero;stroke:none;stroke-width:.924642"/><path d="m18.202 5.946-.87-4.97H8.27L7.573 3.83l3.37.002.448 2.097z" style="fill:#231f20;fill-opacity:1;fill-rule:nonzero;stroke:none;stroke-width:.924642"/><path d="M16.012 1.577h-1.073V0h1.073z" style="fill:#231f20;fill-opacity:1;fill-rule:nonzero;stroke:none;stroke-width:.924642"/></svg>